<svg xmlns="http://www.w3.org/2000/svg" viewBox="0 0 48 48"><path fill="#FFC107" d="M43.6 20.5H42V20H24v8h11.3c-1.6 4.6-6 8-11.3 8-6.9 0-12.5-5.6-12.5-12.5S17.1 11 24 11c3.2 0 6.1 1.2 8.3 3.2L38 8.5C34.7 5.3 29.6 3 24 3 12.3 3 3 12.3 3 24s9.3 21 21 21c10.5 0 20-7.6 20-21 0-1.1-.1-2.1-.4-3z"/><path fill="#FF3D00" d="M6.3 14.7l6.6 4.8C14.5 16.1 18.8 13 24 13c3.2 0 6.1 1.2 8.3 3.2l5.7-5.7C34.7 5.3 29.6 3 24 3 15.7 3 8.7 7.3 6.3 14.7z"/><path fill="#4CAF50" d="M24 45c5.2 0 10-1.9 13.6-5.1l-6.3-5.2C29.6 35.9 27 37 24 37c-5.2 0-9.6-3.4-11.2-8l-6.5 5c2.4 6.7 9.4 11 17.7 11z"/><path fill="#1976D2" d="M43.6 20.5H42V20H24v8h11.3c-1.1 3-3.4 5.5-6.3 7.1l6.3 5.2C37.7 38.1 41 32.6 41 24c0-1.1-.1-2.1-.4-3.5z"/></svg>