<svg xmlns="http://www.w3.org/2000/svg" viewBox="0 0 24 24"><path d="M16.365 1.43c-.887.52-1.654 1.387-1.517 2.435 1.048.084 2.12-.532 2.733-1.37.571-.788.987-1.895.781-2.995-.834.03-1.732.415-1.997.93zm4.348 8.09c-2.365-.142-3.32 1.324-4.298 1.324-.979 0-2.302-1.282-3.806-1.247-1.962.056-3.772 1.148-4.77 2.903-2.042 3.54-.525 8.797 1.45 11.685.957 1.376 2.114 2.92 3.65 2.866 1.466-.057 2.018-.926 3.789-.926 1.771 0 2.269.926 3.822.898 1.584-.027 2.586-1.41 3.535-2.803 1.06-1.54 1.5-3.03 1.528-3.106-.033-.014-2.936-1.126-2.969-4.46-.028-2.81 2.29-4.088 2.397-4.152-1.311-1.92-3.345-2.681-3.328-2.692z" fill="currentColor"/></svg>